<svg xmlns="http://www.w3.org/2000/svg" width="512" height="512" viewBox="0 0 512 512">
  <defs>
    <radialGradient id="bg" cx="50%" cy="50%" r="55%">
      <stop offset="0%" stop-color="#0a0a1a"/>
      <stop offset="100%" stop-color="#000000"/>
    </radialGradient>
    <radialGradient id="glow" cx="50%" cy="50%" r="50%">
      <stop offset="0%" stop-color="#ffffff" stop-opacity="0.08"/>
      <stop offset="40%" stop-color="#ffffff" stop-opacity="0.02"/>
      <stop offset="100%" stop-color="#ffffff" stop-opacity="0"/>
    </radialGradient>
  </defs>

  <rect id="background" fill="url(#bg)" x="36" y="36" rx="48" ry="48" width="440" height="440"/>
  <rect id="glow" fill="url(#glow)" x="36" y="36" rx="48" ry="48" width="440" height="440"/>

  <clipPath id="clip">
    <rect x="36" y="36" rx="48" ry="48" width="440" height="440"/>
  </clipPath>

  <g clip-path="url(#clip)">
    <g id="far-away">
      <circle cx="248" cy="245" r="1" fill="#ffffff" opacity="0.5"/>
      <circle cx="265" cy="250" r="1" fill="#ffffff" opacity="0.4"/>
      <circle cx="252" cy="262" r="1" fill="#ffffff" opacity="0.5"/>
      <circle cx="240" cy="255" r="1.2" fill="#ffffff" opacity="0.45"/>
      <circle cx="270" cy="243" r="1" fill="#ffffff" opacity="0.4"/>
      <circle cx="258" cy="270" r="1.2" fill="#ffffff" opacity="0.5"/>
      <circle cx="244" cy="240" r="0.8" fill="#ffffff" opacity="0.35"/>
      <circle cx="268" cy="260" r="1" fill="#ffffff" opacity="0.4"/>
      <circle cx="250" cy="248" r="0.8" fill="#ffffff" opacity="0.3"/>
      <circle cx="262" cy="252" r="1" fill="#ffffff" opacity="0.45"/>
      <circle cx="255" cy="238" r="0.8" fill="#ffffff" opacity="0.35"/>
      <circle cx="245" cy="268" r="1" fill="#ffffff" opacity="0.4"/>
    </g>

    <g id="mid-distance">
      <circle cx="215" cy="200" r="1.8" fill="#ffffff" opacity="0.55"/>
      <circle cx="300" cy="210" r="2" fill="#ffffff" opacity="0.6"/>
      <circle cx="195" cy="280" r="1.8" fill="#ffffff" opacity="0.55"/>
      <circle cx="310" cy="300" r="2.2" fill="#ffffff" opacity="0.6"/>
      <circle cx="220" cy="310" r="1.5" fill="#ffffff" opacity="0.5"/>
      <circle cx="290" cy="195" r="1.8" fill="#ffffff" opacity="0.55"/>
      <circle cx="200" cy="230" r="1.5" fill="#ffffff" opacity="0.5"/>
      <circle cx="310" cy="260" r="1.8" fill="#ffffff" opacity="0.55"/>
      <circle cx="230" cy="185" r="1.5" fill="#ffffff" opacity="0.5"/>
      <circle cx="280" cy="320" r="2" fill="#ffffff" opacity="0.55"/>
      <circle cx="205" cy="310" r="1.5" fill="#ffffff" opacity="0.5"/>
      <circle cx="330" cy="230" r="1.8" fill="#ffffff" opacity="0.55"/>
      <circle cx="185" cy="250" r="1.5" fill="#ffffff" opacity="0.45"/>
      <circle cx="275" cy="180" r="1.8" fill="#ffffff" opacity="0.55"/>
    </g>

    <g id="closer">
      <circle cx="160" cy="150" r="2.8" fill="#ffffff" opacity="0.7"/>
      <circle cx="370" cy="160" r="3" fill="#ffffff" opacity="0.7"/>
      <circle cx="140" cy="320" r="2.5" fill="#ffffff" opacity="0.65"/>
      <circle cx="380" cy="350" r="3.2" fill="#ffffff" opacity="0.72"/>
      <circle cx="150" cy="230" r="2.5" fill="#ffffff" opacity="0.65"/>
      <circle cx="360" cy="280" r="2.8" fill="#ffffff" opacity="0.7"/>
      <circle cx="170" cy="380" r="2.5" fill="#ffffff" opacity="0.65"/>
      <circle cx="340" cy="140" r="2.8" fill="#ffffff" opacity="0.68"/>
      <circle cx="350" cy="400" r="2.5" fill="#ffffff" opacity="0.65"/>
      <circle cx="130" cy="190" r="2.2" fill="#ffffff" opacity="0.6"/>
      <circle cx="180" cy="120" r="2.5" fill="#ffffff" opacity="0.65"/>
      <circle cx="390" cy="240" r="2.8" fill="#ffffff" opacity="0.68"/>
    </g>

    <g id="near">
      <circle cx="95" cy="90" r="3.5" fill="#ffffff" opacity="0.85"/>
      <circle cx="95" cy="90" r="6" fill="#ffffff" opacity="0.12"/>

      <circle cx="420" cy="100" r="3.2" fill="#ffffff" opacity="0.82"/>
      <circle cx="420" cy="100" r="5.5" fill="#ffffff" opacity="0.10"/>

      <circle cx="80" cy="380" r="3.8" fill="#ffffff" opacity="0.88"/>
      <circle cx="80" cy="380" r="6.5" fill="#ffffff" opacity="0.13"/>

      <circle cx="440" cy="410" r="4" fill="#ffffff" opacity="0.9"/>
      <circle cx="440" cy="410" r="7" fill="#ffffff" opacity="0.14"/>

      <circle cx="70" cy="240" r="3" fill="#ffffff" opacity="0.78"/>
      <circle cx="70" cy="240" r="5" fill="#ffffff" opacity="0.10"/>

      <circle cx="445" cy="270" r="3.2" fill="#ffffff" opacity="0.8"/>
      <circle cx="445" cy="270" r="5.5" fill="#ffffff" opacity="0.11"/>

      <circle cx="130" cy="440" r="3.5" fill="#ffffff" opacity="0.85"/>
      <circle cx="130" cy="440" r="6" fill="#ffffff" opacity="0.12"/>

      <circle cx="400" cy="70" r="3" fill="#ffffff" opacity="0.78"/>
      <circle cx="400" cy="70" r="5" fill="#ffffff" opacity="0.10"/>

      <circle cx="310" cy="65" r="3.2" fill="#ffffff" opacity="0.8"/>
      <circle cx="310" cy="65" r="5.5" fill="#ffffff" opacity="0.10"/>

      <circle cx="160" cy="60" r="2.8" fill="#ffffff" opacity="0.75"/>
      <circle cx="160" cy="60" r="5" fill="#ffffff" opacity="0.09"/>

      <circle cx="60" cy="130" r="3" fill="#ffffff" opacity="0.8"/>
      <circle cx="60" cy="130" r="5.2" fill="#ffffff" opacity="0.10"/>

      <circle cx="450" cy="160" r="2.5" fill="#ffffff" opacity="0.75"/>
      <circle cx="450" cy="160" r="4.5" fill="#ffffff" opacity="0.09"/>

      <circle cx="380" cy="450" r="3.5" fill="#ffffff" opacity="0.85"/>
      <circle cx="380" cy="450" r="6" fill="#ffffff" opacity="0.12"/>

      <circle cx="230" cy="450" r="3" fill="#ffffff" opacity="0.78"/>
      <circle cx="230" cy="450" r="5" fill="#ffffff" opacity="0.10"/>
    </g>
  </g>
</svg>
